<?xml version="1.0" standalone="no"?>
<!DOCTYPE svg PUBLIC "-//W3C//DTD SVG 20010904//EN"
 "http://www.w3.org/TR/2001/REC-SVG-20010904/DTD/svg10.dtd">
<svg version="1.0" xmlns="http://www.w3.org/2000/svg"
 width="500.000000pt" height="500.000000pt" viewBox="0 0 500.000000 500.000000"
 preserveAspectRatio="xMidYMid meet">

<g transform="translate(0.000000,500.000000) scale(0.100000,-0.100000)"
fill="#000000" stroke="none">
<path d="M1355 3670 c-126 -27 -145 -32 -151 -41 -3 -5 -12 -9 -21 -9 -42 0
-224 -111 -293 -179 -202 -200 -257 -518 -135 -779 77 -163 201 -270 386 -333
86 -29 105 -32 224 -33 73 0 143 4 160 11 17 6 50 17 75 24 60 17 70 26 70 61
l0 29 -47 -8 c-198 -33 -373 45 -504 227 -98 135 -122 404 -52 585 67 176 192
293 381 355 98 31 241 45 249 23 3 -7 -11 -14 -34 -18 -213 -34 -335 -107
-418 -250 -25 -41 -30 -62 -33 -137 l-4 -88 603 2 604 3 3 35 c4 55 21 87 60
113 55 38 104 47 243 47 113 0 129 -2 153 -21 l26 -21 -2 -946 c-3 -908 -4
-948 -22 -978 -37 -61 -124 -93 -259 -94 l-78 0 3 -28 3 -27 480 -5 c537 -6
551 -5 557 18 9 35 -2 42 -70 42 -78 0 -176 18 -216 40 -16 9 -39 34 -50 55
-21 40 -21 48 -24 1193 -3 1285 5 1175 -74 1126 -52 -33 -170 -88 -223 -104
-22 -6 -53 -16 -70 -21 -49 -16 -273 -22 -355 -10 -173 25 -209 33 -305 62
-55 17 -122 37 -150 46 -175 52 -524 69 -690 33z"/>
<path d="M3795 3672 c-27 -10 -68 -27 -90 -39 -52 -27 -127 -108 -149 -159
-10 -21 -22 -47 -27 -56 -5 -10 -9 -58 -9 -108 0 -99 22 -166 77 -235 40 -50
129 -110 192 -129 158 -47 356 7 448 122 127 158 117 358 -25 504 -100 104
-277 146 -417 100z m248 -100 c73 -32 130 -98 155 -179 26 -82 26 -90 7 -158
-78 -266 -437 -292 -556 -40 -54 113 -30 232 64 321 89 83 218 105 330 56z"/>
<path d="M2030 3037 c-17 -8 -103 -11 -282 -11 -203 1 -258 -1 -258 -11 0 -15
23 -18 278 -42 164 -15 198 -15 315 -3 73 8 153 13 180 12 l47 -2 0 35 0 35
-127 -1 c-76 0 -138 -5 -153 -12z"/>
<path d="M1250 2985 c0 -23 31 -107 44 -121 75 -74 385 -119 666 -95 171 14
223 25 261 51 38 28 131 28 159 0 17 -17 20 -33 20 -109 0 -85 1 -91 26 -110
32 -25 76 -27 109 -5 25 16 25 18 25 166 0 144 -1 150 -24 173 -31 31 -89 42
-141 25 -37 -11 -61 -13 -132 -8 -16 1 -88 -6 -161 -15 -284 -36 -637 -15
-780 45 -53 22 -72 23 -72 3z"/>
<path d="M1622 2683 c25 -28 41 -63 52 -115 4 -15 19 -43 36 -61 28 -33 29
-35 20 -98 -5 -35 -10 -90 -10 -121 0 -56 1 -58 26 -58 24 0 26 3 20 28 -24
110 -24 113 44 188 55 60 110 153 110 185 0 6 9 23 20 39 11 15 17 30 13 34
-3 3 -85 6 -182 6 l-175 0 26 -27z"/>
<path d="M1740 2152 c0 -9 -16 -53 -35 -97 -39 -89 -42 -113 -20 -155 30 -58
90 -67 136 -21 39 39 38 83 -2 163 -18 35 -39 78 -47 96 -18 35 -32 42 -32 14z"/>
<path d="M1578 1762 c-461 -2 -538 -4 -538 -17 0 -13 7 -33 31 -90 5 -11 20
-58 35 -105 55 -175 127 -284 216 -327 94 -46 108 -48 278 -47 157 1 168 2
225 28 33 15 74 40 90 55 23 21 47 30 105 40 139 22 211 59 290 148 59 68 72
98 73 169 1 70 -7 84 -59 109 -44 20 -91 14 -151 -21 -57 -33 -63 -31 -51 12
5 20 6 39 1 43 -4 3 -250 5 -545 3z m714 -99 c41 -37 8 -157 -61 -214 -44 -37
-150 -88 -196 -96 -39 -6 -41 -3 -21 35 16 31 48 114 72 189 14 45 22 55 62
77 55 29 117 33 144 9z"/>
</g>
</svg>
