<svg xmlns="http://www.w3.org/2000/svg" xmlns:xlink="http://www.w3.org/1999/xlink" width="2000" zoomAndPan="magnify" viewBox="0 0 1500 1499.999933" height="2000" preserveAspectRatio="xMidYMid meet" version="1.0"><rect x="-150" width="1800" fill="#ffffff" y="-149.999993" height="1799.99992" fill-opacity="1"/><rect x="-150" width="1800" fill="#ffffff" y="-149.999993" height="1799.99992" fill-opacity="1"/><path fill="#ffffff" d="M 284.890625 274.734375 C 233.707031 285.703125 225.988281 287.734375 223.550781 291.390625 C 222.332031 293.417969 218.675781 295.042969 215.023438 295.042969 C 197.960938 295.042969 124.03125 340.132812 96.003906 367.757812 C 13.949219 449 -8.394531 578.171875 41.164062 684.191406 C 72.441406 750.40625 122.8125 793.871094 197.960938 819.460938 C 232.894531 831.242188 240.613281 832.460938 288.953125 832.867188 C 318.605469 832.867188 347.039062 831.242188 353.945312 828.398438 C 360.851562 825.960938 374.253906 821.492188 384.410156 818.648438 C 408.785156 811.742188 412.84375 808.085938 412.84375 793.871094 L 412.84375 782.089844 L 393.753906 785.339844 C 313.324219 798.746094 242.238281 767.058594 189.023438 693.128906 C 149.214844 638.292969 139.464844 529.019531 167.902344 455.496094 C 195.117188 384.003906 245.894531 336.476562 322.667969 311.292969 C 362.476562 298.699219 420.5625 293.011719 423.8125 301.949219 C 425.03125 304.792969 419.34375 307.636719 410.003906 309.261719 C 323.480469 323.074219 273.921875 352.726562 240.207031 410.8125 C 230.050781 427.46875 228.019531 436 226.800781 466.464844 L 225.175781 502.210938 L 470.121094 501.398438 L 715.472656 500.179688 L 716.691406 485.964844 C 718.316406 463.621094 725.21875 450.621094 741.0625 440.0625 C 763.402344 424.625 783.308594 420.96875 839.773438 420.96875 C 885.671875 420.96875 892.171875 421.78125 901.921875 429.5 L 912.484375 438.03125 L 911.671875 822.304688 C 910.453125 1191.140625 910.046875 1207.390625 902.734375 1219.578125 C 887.703125 1244.355469 852.363281 1257.355469 797.527344 1257.761719 L 765.839844 1257.761719 L 767.058594 1269.132812 L 768.277344 1280.101562 L 963.257812 1282.132812 C 1181.394531 1284.570312 1187.082031 1284.164062 1189.519531 1274.820312 C 1193.171875 1260.605469 1188.707031 1257.761719 1161.082031 1257.761719 C 1129.398438 1257.761719 1089.589844 1250.449219 1073.34375 1241.511719 C 1066.84375 1237.855469 1057.5 1227.703125 1053.03125 1219.171875 C 1044.5 1202.921875 1044.5 1199.671875 1043.28125 734.5625 C 1042.0625 212.585938 1045.3125 257.265625 1013.222656 277.171875 C 992.101562 290.578125 944.167969 312.917969 922.636719 319.417969 C 913.703125 321.855469 901.109375 325.917969 894.203125 327.949219 C 874.300781 334.445312 783.308594 336.882812 750 332.007812 C 679.726562 321.855469 665.101562 318.605469 626.105469 306.824219 C 603.765625 299.917969 576.546875 291.796875 565.175781 288.140625 C 494.085938 267.015625 352.320312 260.109375 284.890625 274.734375 Z M 284.890625 274.734375 " fill-opacity="1" fill-rule="nonzero"/><path fill="#ffffff" d="M 1276.039062 273.921875 C 1265.074219 277.984375 1248.417969 284.890625 1239.480469 289.765625 C 1218.359375 300.730469 1187.894531 333.632812 1178.957031 354.351562 C 1174.894531 362.882812 1170.019531 373.441406 1167.988281 377.097656 C 1165.957031 381.160156 1164.332031 400.660156 1164.332031 420.96875 C 1164.332031 461.183594 1173.269531 488.398438 1195.609375 516.429688 C 1211.859375 536.738281 1248.011719 561.113281 1273.601562 568.828125 C 1337.785156 587.921875 1418.214844 565.988281 1455.585938 519.273438 C 1507.171875 455.089844 1503.113281 373.847656 1445.429688 314.542969 C 1404.808594 272.296875 1332.910156 255.234375 1276.039062 273.921875 Z M 1376.78125 314.542969 C 1406.433594 327.542969 1429.585938 354.351562 1439.742188 387.253906 C 1450.304688 420.5625 1450.304688 423.8125 1442.585938 451.433594 C 1410.902344 559.488281 1265.074219 570.046875 1216.734375 467.683594 C 1194.796875 421.78125 1204.546875 373.441406 1242.730469 337.289062 C 1278.882812 303.574219 1331.285156 294.636719 1376.78125 314.542969 Z M 1376.78125 314.542969 " fill-opacity="1" fill-rule="nonzero"/><path fill="#ffffff" d="M 559.082031 531.863281 C 552.175781 535.113281 517.242188 536.332031 444.53125 536.332031 C 362.070312 535.925781 339.726562 536.738281 339.726562 540.800781 C 339.726562 546.894531 349.070312 548.113281 452.652344 557.863281 C 519.273438 563.957031 533.082031 563.957031 580.609375 559.082031 C 610.261719 555.832031 642.761719 553.800781 653.726562 554.207031 L 672.820312 555.019531 L 672.820312 526.585938 L 621.230469 526.992188 C 590.359375 526.992188 565.175781 529.019531 559.082031 531.863281 Z M 559.082031 531.863281 " fill-opacity="1" fill-rule="nonzero"/><path fill="#ffffff" d="M 242.238281 552.988281 C 242.238281 562.332031 254.828125 596.453125 260.109375 602.140625 C 290.578125 632.199219 416.5 650.476562 530.644531 640.730469 C 600.109375 635.042969 621.230469 630.574219 636.667969 620.011719 C 652.101562 608.636719 689.878906 608.636719 701.253906 620.011719 C 708.160156 626.917969 709.378906 633.417969 709.378906 664.289062 C 709.378906 698.816406 709.785156 701.253906 719.941406 708.972656 C 732.9375 719.128906 750.8125 719.941406 764.214844 711.003906 C 774.371094 704.503906 774.371094 703.691406 774.371094 643.574219 C 774.371094 585.078125 773.964844 582.640625 764.621094 573.296875 C 752.03125 560.707031 728.46875 556.238281 707.347656 563.144531 C 692.316406 567.609375 682.570312 568.421875 653.726562 566.390625 C 647.226562 565.988281 617.980469 568.828125 588.328125 572.484375 C 472.964844 587.109375 329.574219 578.578125 271.484375 554.207031 C 249.957031 545.269531 242.238281 544.863281 242.238281 552.988281 Z M 242.238281 552.988281 " fill-opacity="1" fill-rule="nonzero"/><path fill="#ffffff" d="M 393.347656 675.664062 C 403.503906 687.035156 410.003906 701.253906 414.46875 722.375 C 416.09375 728.46875 422.1875 739.84375 429.09375 747.15625 C 440.46875 760.5625 440.875 761.371094 437.21875 786.964844 C 435.1875 801.179688 433.15625 823.523438 433.15625 836.117188 C 433.15625 858.863281 433.5625 859.675781 443.71875 859.675781 C 453.464844 859.675781 454.277344 858.457031 451.839844 848.300781 C 442.09375 803.617188 442.09375 802.398438 469.714844 771.933594 C 492.054688 747.5625 514.398438 709.785156 514.398438 696.785156 C 514.398438 694.347656 518.054688 687.441406 522.523438 680.945312 C 526.992188 674.851562 529.425781 668.757812 527.800781 667.132812 C 526.585938 665.914062 493.273438 664.695312 453.871094 664.695312 L 382.785156 664.695312 Z M 393.347656 675.664062 " fill-opacity="1" fill-rule="nonzero"/><path fill="#ffffff" d="M 441.28125 891.359375 C 441.28125 895.015625 434.78125 912.890625 427.0625 930.761719 C 411.21875 966.914062 410.003906 976.664062 418.9375 993.726562 C 431.125 1017.285156 455.496094 1020.941406 474.183594 1002.253906 C 490.023438 986.414062 489.617188 968.539062 473.371094 936.042969 C 466.058594 921.824219 457.527344 904.359375 454.277344 897.046875 C 446.96875 882.828125 441.28125 879.984375 441.28125 891.359375 Z M 441.28125 891.359375 " fill-opacity="1" fill-rule="nonzero"/><path fill="#ffffff" d="M 375.472656 1049.78125 C 188.210938 1050.59375 156.933594 1051.40625 156.933594 1056.6875 C 156.933594 1061.96875 159.777344 1070.09375 169.527344 1093.246094 C 171.558594 1097.714844 177.648438 1116.804688 183.742188 1135.898438 C 206.085938 1206.984375 235.332031 1251.261719 271.484375 1268.730469 C 309.667969 1287.414062 315.355469 1288.226562 384.410156 1287.820312 C 448.1875 1287.414062 452.652344 1287.007812 475.808594 1276.445312 C 489.210938 1270.351562 505.867188 1260.199219 512.367188 1254.105469 C 521.710938 1245.574219 531.457031 1241.917969 555.019531 1237.855469 C 611.480469 1228.921875 640.730469 1213.890625 672.820312 1177.738281 C 696.785156 1150.117188 702.066406 1137.929688 702.472656 1109.089844 C 702.878906 1080.652344 699.628906 1074.964844 678.507812 1064.8125 C 660.632812 1056.6875 641.542969 1059.125 617.167969 1073.34375 C 594.015625 1086.746094 591.578125 1085.933594 596.453125 1068.46875 C 598.484375 1060.34375 598.890625 1052.625 596.859375 1051 C 595.234375 1049.78125 495.304688 1048.96875 375.472656 1049.78125 Z M 665.507812 1089.996094 C 682.164062 1105.027344 668.757812 1153.769531 640.730469 1176.925781 C 622.855469 1191.953125 579.796875 1212.671875 561.113281 1215.921875 C 545.269531 1218.359375 544.457031 1217.140625 552.582031 1201.703125 C 559.082031 1189.113281 572.078125 1155.394531 581.828125 1124.929688 C 587.515625 1106.652344 590.765625 1102.589844 607.011719 1093.652344 C 629.355469 1081.871094 654.539062 1080.246094 665.507812 1089.996094 Z M 665.507812 1089.996094 " fill-opacity="1" fill-rule="nonzero"/></svg>